# xmcd
#
# Track frame offsets:
#	150
#	11567
#	29722
#	41438
#	61271
#	75562
#	95609
#	114250
#	128564
#	147067
#	162560
#
# Disc length: 2614 seconds
#
# Revision: 1
# Processed by: cddbd v1.5.2PL0 Copyright (c) Steve Scherf et al.
# Submitted via: audiograbber 1.80
#
DISCID=870a340b
DTITLE=The Duanes - The Duanes
DYEAR=1900
DGENRE=
TTITLE0=Lay It Down
TTITLE1=She Loves Somebody Else
TTITLE2=Sweet As Honey
TTITLE3=Cowgirls are my Weakness
TTITLE4=Tender Hearted Woman
TTITLE5=The Noose
TTITLE6=Jesus was a Longrasser
TTITLE7=Blowed Away (Live)
TTITLE8=The Noose (Longhorn re-edit by Cooperblack)
TTITLE9=THW (Juz Moon Remix)
TTITLE10=Hidden Track - Interview
EXTD=
EXTT0=
EXTT1=
EXTT2=
EXTT3=
EXTT4=
EXTT5=
EXTT6=
EXTT7=
EXTT8=
EXTT9=
EXTT10=
PLAYORDER=
